<?xml version="1.0" encoding="UTF-8" standalone="no"?>
<!DOCTYPE svg PUBLIC "-//W3C//DTD SVG 1.1//EN"
 "http://www.w3.org/Graphics/SVG/1.1/DTD/svg11.dtd">
<!-- Generated by graphviz version 14.1.2 (20260124.0452)
 -->
<!-- Pages: 1 -->
<svg width="216pt" height="232pt"
 viewBox="0.00 0.00 216.00 232.00" xmlns="http://www.w3.org/2000/svg" xmlns:xlink="http://www.w3.org/1999/xlink">
<g id="graph0" class="graph" transform="scale(1 1) rotate(0) translate(4 227.97)">
<polygon fill="white" stroke="none" points="-4,4 -4,-227.97 212.37,-227.97 212.37,4 -4,4"/>
<!-- node0 -->
<g id="node1" class="node">
<title>node0</title>
<ellipse fill="none" stroke="black" cx="81.95" cy="-205.97" rx="27" ry="18"/>
<text xml:space="preserve" text-anchor="middle" x="81.95" y="-200.92" font-family="Times New Roman,serif" font-size="14.00">7</text>
</g>
<!-- node1 -->
<g id="node2" class="node">
<title>node1</title>
<ellipse fill="none" stroke="black" cx="39.95" cy="-122.97" rx="39.95" ry="28.99"/>
<text xml:space="preserve" text-anchor="middle" x="39.95" y="-126.17" font-family="Times New Roman,serif" font-size="14.00">7</text>
<text xml:space="preserve" text-anchor="middle" x="39.95" y="-109.67" font-family="Times New Roman,serif" font-size="14.00">what th</text>
</g>
<!-- node0&#45;&gt;node1 -->
<g id="edge1" class="edge">
<title>node0&#45;&gt;node1</title>
<path fill="none" stroke="black" d="M73.45,-188.58C69.25,-180.48 64.01,-170.36 58.92,-160.55"/>
<polygon fill="black" stroke="black" points="62.14,-159.15 54.43,-151.89 55.92,-162.38 62.14,-159.15"/>
</g>
<!-- node2 -->
<g id="node3" class="node">
<title>node2</title>
<ellipse fill="none" stroke="black" cx="124.95" cy="-122.97" rx="27" ry="18"/>
<text xml:space="preserve" text-anchor="middle" x="124.95" y="-117.92" font-family="Times New Roman,serif" font-size="14.00">4</text>
</g>
<!-- node0&#45;&gt;node2 -->
<g id="edge4" class="edge">
<title>node0&#45;&gt;node2</title>
<path fill="none" stroke="black" d="M90.65,-188.58C96.48,-177.6 104.28,-162.9 110.97,-150.3"/>
<polygon fill="black" stroke="black" points="113.96,-152.15 115.55,-141.68 107.77,-148.87 113.96,-152.15"/>
</g>
<!-- node3 -->
<g id="node4" class="node">
<title>node3</title>
<ellipse fill="none" stroke="black" cx="80.95" cy="-28.99" rx="30.41" ry="28.99"/>
<text xml:space="preserve" text-anchor="middle" x="80.95" y="-32.19" font-family="Times New Roman,serif" font-size="14.00">4</text>
<text xml:space="preserve" text-anchor="middle" x="80.95" y="-15.69" font-family="Times New Roman,serif" font-size="14.00">1234</text>
</g>
<!-- node2&#45;&gt;node3 -->
<g id="edge2" class="edge">
<title>node2&#45;&gt;node3</title>
<path fill="none" stroke="black" d="M117.09,-105.53C111.81,-94.49 104.64,-79.52 98.09,-65.82"/>
<polygon fill="black" stroke="black" points="101.36,-64.55 93.89,-57.04 95.05,-67.57 101.36,-64.55"/>
</g>
<!-- node4 -->
<g id="node5" class="node">
<title>node4</title>
<ellipse fill="none" stroke="black" cx="168.95" cy="-28.99" rx="39.42" ry="28.99"/>
<text xml:space="preserve" text-anchor="middle" x="168.95" y="-32.19" font-family="Times New Roman,serif" font-size="14.00">8</text>
<text xml:space="preserve" text-anchor="middle" x="168.95" y="-15.69" font-family="Times New Roman,serif" font-size="14.00">e hell a</text>
</g>
<!-- node2&#45;&gt;node4 -->
<g id="edge3" class="edge">
<title>node2&#45;&gt;node4</title>
<path fill="none" stroke="black" d="M132.82,-105.53C137.98,-94.74 144.94,-80.19 151.37,-66.74"/>
<polygon fill="black" stroke="black" points="154.34,-68.65 155.5,-58.11 148.03,-65.63 154.34,-68.65"/>
</g>
</g>
</svg>
