<?xml version="1.0" encoding="UTF-8" standalone="no"?>
<!DOCTYPE svg PUBLIC "-//W3C//DTD SVG 1.1//EN"
 "http://www.w3.org/Graphics/SVG/1.1/DTD/svg11.dtd">
<!-- Generated by graphviz version 14.1.2 (20260124.0452)
 -->
<!-- Pages: 1 -->
<svg width="411pt" height="398pt"
 viewBox="0.00 0.00 411.00 398.00" xmlns="http://www.w3.org/2000/svg" xmlns:xlink="http://www.w3.org/1999/xlink">
<g id="graph0" class="graph" transform="scale(1 1) rotate(0) translate(4 393.95)">
<polygon fill="white" stroke="none" points="-4,4 -4,-393.95 406.54,-393.95 406.54,4 -4,4"/>
<!-- node0 -->
<g id="node1" class="node">
<title>node0</title>
<ellipse fill="none" stroke="black" cx="271.24" cy="-371.95" rx="27" ry="18"/>
<text xml:space="preserve" text-anchor="middle" x="271.24" y="-366.9" font-family="Times New Roman,serif" font-size="14.00">18</text>
</g>
<!-- node1 -->
<g id="node2" class="node">
<title>node1</title>
<ellipse fill="none" stroke="black" cx="213.24" cy="-288.96" rx="27" ry="18"/>
<text xml:space="preserve" text-anchor="middle" x="213.24" y="-283.91" font-family="Times New Roman,serif" font-size="14.00">17</text>
</g>
<!-- node0&#45;&gt;node1 -->
<g id="edge9" class="edge">
<title>node0&#45;&gt;node1</title>
<path fill="none" stroke="black" d="M260.06,-355.33C251.84,-343.87 240.52,-328.05 231.07,-314.85"/>
<polygon fill="black" stroke="black" points="234.13,-313.12 225.47,-307.03 228.44,-317.2 234.13,-313.12"/>
</g>
<!-- node10 -->
<g id="node11" class="node">
<title>node10</title>
<ellipse fill="none" stroke="black" cx="330.24" cy="-288.96" rx="72.3" ry="28.99"/>
<text xml:space="preserve" text-anchor="middle" x="330.24" y="-292.16" font-family="Times New Roman,serif" font-size="14.00">16</text>
<text xml:space="preserve" text-anchor="middle" x="330.24" y="-275.66" font-family="Times New Roman,serif" font-size="14.00">ll are you doing</text>
</g>
<!-- node0&#45;&gt;node10 -->
<g id="edge10" class="edge">
<title>node0&#45;&gt;node10</title>
<path fill="none" stroke="black" d="M282.62,-355.33C288.67,-347.03 296.38,-336.44 303.82,-326.22"/>
<polygon fill="black" stroke="black" points="306.58,-328.38 309.64,-318.23 300.92,-324.26 306.58,-328.38"/>
</g>
<!-- node2 -->
<g id="node3" class="node">
<title>node2</title>
<ellipse fill="none" stroke="black" cx="174.24" cy="-194.97" rx="27" ry="18"/>
<text xml:space="preserve" text-anchor="middle" x="174.24" y="-189.92" font-family="Times New Roman,serif" font-size="14.00">13</text>
</g>
<!-- node1&#45;&gt;node2 -->
<g id="edge7" class="edge">
<title>node1&#45;&gt;node2</title>
<path fill="none" stroke="black" d="M206.27,-271.51C200.53,-257.99 192.3,-238.57 185.61,-222.8"/>
<polygon fill="black" stroke="black" points="189,-221.82 181.87,-213.98 182.55,-224.55 189,-221.82"/>
</g>
<!-- node9 -->
<g id="node10" class="node">
<title>node9</title>
<ellipse fill="none" stroke="black" cx="253.24" cy="-194.97" rx="33.59" ry="28.99"/>
<text xml:space="preserve" text-anchor="middle" x="253.24" y="-198.17" font-family="Times New Roman,serif" font-size="14.00">5</text>
<text xml:space="preserve" text-anchor="middle" x="253.24" y="-181.67" font-family="Times New Roman,serif" font-size="14.00">bruhv</text>
</g>
<!-- node1&#45;&gt;node9 -->
<g id="edge8" class="edge">
<title>node1&#45;&gt;node9</title>
<path fill="none" stroke="black" d="M220.39,-271.51C225.07,-260.75 231.38,-246.24 237.22,-232.81"/>
<polygon fill="black" stroke="black" points="240.38,-234.33 241.16,-223.76 233.96,-231.53 240.38,-234.33"/>
</g>
<!-- node3 -->
<g id="node4" class="node">
<title>node3</title>
<ellipse fill="none" stroke="black" cx="130.24" cy="-111.98" rx="27" ry="18"/>
<text xml:space="preserve" text-anchor="middle" x="130.24" y="-106.93" font-family="Times New Roman,serif" font-size="14.00">6</text>
</g>
<!-- node2&#45;&gt;node3 -->
<g id="edge3" class="edge">
<title>node2&#45;&gt;node3</title>
<path fill="none" stroke="black" d="M165.34,-177.58C159.37,-166.61 151.39,-151.91 144.54,-139.31"/>
<polygon fill="black" stroke="black" points="147.7,-137.79 139.85,-130.68 141.55,-141.14 147.7,-137.79"/>
</g>
<!-- node6 -->
<g id="node7" class="node">
<title>node6</title>
<ellipse fill="none" stroke="black" cx="218.24" cy="-111.98" rx="27" ry="18"/>
<text xml:space="preserve" text-anchor="middle" x="218.24" y="-106.93" font-family="Times New Roman,serif" font-size="14.00">4</text>
</g>
<!-- node2&#45;&gt;node6 -->
<g id="edge6" class="edge">
<title>node2&#45;&gt;node6</title>
<path fill="none" stroke="black" d="M183.14,-177.58C189.11,-166.61 197.09,-151.91 203.94,-139.31"/>
<polygon fill="black" stroke="black" points="206.93,-141.14 208.63,-130.68 200.78,-137.79 206.93,-141.14"/>
</g>
<!-- node4 -->
<g id="node5" class="node">
<title>node4</title>
<ellipse fill="none" stroke="black" cx="36.24" cy="-28.99" rx="36.24" ry="28.99"/>
<text xml:space="preserve" text-anchor="middle" x="36.24" y="-32.19" font-family="Times New Roman,serif" font-size="14.00">6</text>
<text xml:space="preserve" text-anchor="middle" x="36.24" y="-15.69" font-family="Times New Roman,serif" font-size="14.00">foobar</text>
</g>
<!-- node3&#45;&gt;node4 -->
<g id="edge1" class="edge">
<title>node3&#45;&gt;node4</title>
<path fill="none" stroke="black" d="M114.29,-97.24C101.95,-86.6 84.42,-71.51 69.11,-58.31"/>
<polygon fill="black" stroke="black" points="71.41,-55.67 61.55,-51.8 66.84,-60.97 71.41,-55.67"/>
</g>
<!-- node5 -->
<g id="node6" class="node">
<title>node5</title>
<ellipse fill="none" stroke="black" cx="130.24" cy="-28.99" rx="39.95" ry="28.99"/>
<text xml:space="preserve" text-anchor="middle" x="130.24" y="-32.19" font-family="Times New Roman,serif" font-size="14.00">7</text>
<text xml:space="preserve" text-anchor="middle" x="130.24" y="-15.69" font-family="Times New Roman,serif" font-size="14.00">what th</text>
</g>
<!-- node3&#45;&gt;node5 -->
<g id="edge2" class="edge">
<title>node3&#45;&gt;node5</title>
<path fill="none" stroke="black" d="M130.24,-93.81C130.24,-86.72 130.24,-78.19 130.24,-69.7"/>
<polygon fill="black" stroke="black" points="133.74,-69.81 130.24,-59.81 126.74,-69.81 133.74,-69.81"/>
</g>
<!-- node7 -->
<g id="node8" class="node">
<title>node7</title>
<ellipse fill="none" stroke="black" cx="218.24" cy="-28.99" rx="30.41" ry="28.99"/>
<text xml:space="preserve" text-anchor="middle" x="218.24" y="-32.19" font-family="Times New Roman,serif" font-size="14.00">4</text>
<text xml:space="preserve" text-anchor="middle" x="218.24" y="-15.69" font-family="Times New Roman,serif" font-size="14.00">1234</text>
</g>
<!-- node6&#45;&gt;node7 -->
<g id="edge4" class="edge">
<title>node6&#45;&gt;node7</title>
<path fill="none" stroke="black" d="M218.24,-93.81C218.24,-86.72 218.24,-78.19 218.24,-69.7"/>
<polygon fill="black" stroke="black" points="221.74,-69.81 218.24,-59.81 214.74,-69.81 221.74,-69.81"/>
</g>
<!-- node8 -->
<g id="node9" class="node">
<title>node8</title>
<ellipse fill="none" stroke="black" cx="294.24" cy="-28.99" rx="27.22" ry="28.99"/>
<text xml:space="preserve" text-anchor="middle" x="294.24" y="-32.19" font-family="Times New Roman,serif" font-size="14.00">4</text>
<text xml:space="preserve" text-anchor="middle" x="294.24" y="-15.69" font-family="Times New Roman,serif" font-size="14.00">e he</text>
</g>
<!-- node6&#45;&gt;node8 -->
<g id="edge5" class="edge">
<title>node6&#45;&gt;node8</title>
<path fill="none" stroke="black" d="M232.18,-96.13C242.09,-85.56 255.72,-71.04 267.67,-58.3"/>
<polygon fill="black" stroke="black" points="269.91,-61.03 274.2,-51.35 264.81,-56.24 269.91,-61.03"/>
</g>
</g>
</svg>
