<?xml version="1.0" encoding="UTF-8" standalone="no"?>
<!DOCTYPE svg PUBLIC "-//W3C//DTD SVG 1.1//EN"
 "http://www.w3.org/Graphics/SVG/1.1/DTD/svg11.dtd">
<!-- Generated by graphviz version 14.1.2 (20260124.0452)
 -->
<!-- Pages: 1 -->
<svg width="505pt" height="304pt"
 viewBox="0.00 0.00 505.00 304.00" xmlns="http://www.w3.org/2000/svg" xmlns:xlink="http://www.w3.org/1999/xlink">
<g id="graph0" class="graph" transform="scale(1 1) rotate(0) translate(4 299.97)">
<polygon fill="white" stroke="none" points="-4,4 -4,-299.97 501.3,-299.97 501.3,4 -4,4"/>
<!-- node0 -->
<g id="node1" class="node">
<title>node0</title>
<ellipse fill="none" stroke="black" cx="223.95" cy="-277.97" rx="27" ry="18"/>
<text xml:space="preserve" text-anchor="middle" x="223.95" y="-272.92" font-family="Times New Roman,serif" font-size="14.00">42</text>
</g>
<!-- node1 -->
<g id="node2" class="node">
<title>node1</title>
<ellipse fill="none" stroke="black" cx="163.95" cy="-205.97" rx="27" ry="18"/>
<text xml:space="preserve" text-anchor="middle" x="163.95" y="-200.92" font-family="Times New Roman,serif" font-size="14.00">18</text>
</g>
<!-- node0&#45;&gt;node1 -->
<g id="edge5" class="edge">
<title>node0&#45;&gt;node1</title>
<path fill="none" stroke="black" d="M210.93,-261.78C203.15,-252.7 193.09,-240.96 184.28,-230.68"/>
<polygon fill="black" stroke="black" points="187.1,-228.59 177.93,-223.27 181.78,-233.14 187.1,-228.59"/>
</g>
<!-- node6 -->
<g id="node7" class="node">
<title>node6</title>
<ellipse fill="none" stroke="black" cx="283.95" cy="-205.97" rx="27" ry="18"/>
<text xml:space="preserve" text-anchor="middle" x="283.95" y="-200.92" font-family="Times New Roman,serif" font-size="14.00">24</text>
</g>
<!-- node0&#45;&gt;node6 -->
<g id="edge8" class="edge">
<title>node0&#45;&gt;node6</title>
<path fill="none" stroke="black" d="M236.97,-261.78C244.75,-252.7 254.81,-240.96 263.62,-230.68"/>
<polygon fill="black" stroke="black" points="266.12,-233.14 269.97,-223.27 260.81,-228.59 266.12,-233.14"/>
</g>
<!-- node2 -->
<g id="node3" class="node">
<title>node2</title>
<ellipse fill="none" stroke="black" cx="83.95" cy="-122.97" rx="27" ry="18"/>
<text xml:space="preserve" text-anchor="middle" x="83.95" y="-117.92" font-family="Times New Roman,serif" font-size="14.00">11</text>
</g>
<!-- node1&#45;&gt;node2 -->
<g id="edge3" class="edge">
<title>node1&#45;&gt;node2</title>
<path fill="none" stroke="black" d="M149.65,-190.49C137.55,-178.24 120.02,-160.49 106.1,-146.4"/>
<polygon fill="black" stroke="black" points="108.98,-144.33 99.46,-139.68 104,-149.25 108.98,-144.33"/>
</g>
<!-- node5 -->
<g id="node6" class="node">
<title>node5</title>
<ellipse fill="none" stroke="black" cx="163.95" cy="-122.97" rx="35.18" ry="28.99"/>
<text xml:space="preserve" text-anchor="middle" x="163.95" y="-126.17" font-family="Times New Roman,serif" font-size="14.00">7</text>
<text xml:space="preserve" text-anchor="middle" x="163.95" y="-109.67" font-family="Times New Roman,serif" font-size="14.00">e hell </text>
</g>
<!-- node1&#45;&gt;node5 -->
<g id="edge4" class="edge">
<title>node1&#45;&gt;node5</title>
<path fill="none" stroke="black" d="M163.95,-187.79C163.95,-180.7 163.95,-172.17 163.95,-163.68"/>
<polygon fill="black" stroke="black" points="167.45,-163.79 163.95,-153.79 160.45,-163.79 167.45,-163.79"/>
</g>
<!-- node3 -->
<g id="node4" class="node">
<title>node3</title>
<ellipse fill="none" stroke="black" cx="39.95" cy="-28.99" rx="39.95" ry="28.99"/>
<text xml:space="preserve" text-anchor="middle" x="39.95" y="-32.19" font-family="Times New Roman,serif" font-size="14.00">7</text>
<text xml:space="preserve" text-anchor="middle" x="39.95" y="-15.69" font-family="Times New Roman,serif" font-size="14.00">what th</text>
</g>
<!-- node2&#45;&gt;node3 -->
<g id="edge1" class="edge">
<title>node2&#45;&gt;node3</title>
<path fill="none" stroke="black" d="M76.09,-105.53C70.92,-94.74 63.96,-80.19 57.53,-66.74"/>
<polygon fill="black" stroke="black" points="60.88,-65.63 53.4,-58.11 54.56,-68.65 60.88,-65.63"/>
</g>
<!-- node4 -->
<g id="node5" class="node">
<title>node4</title>
<ellipse fill="none" stroke="black" cx="127.95" cy="-28.99" rx="30.41" ry="28.99"/>
<text xml:space="preserve" text-anchor="middle" x="127.95" y="-32.19" font-family="Times New Roman,serif" font-size="14.00">4</text>
<text xml:space="preserve" text-anchor="middle" x="127.95" y="-15.69" font-family="Times New Roman,serif" font-size="14.00">1234</text>
</g>
<!-- node2&#45;&gt;node4 -->
<g id="edge2" class="edge">
<title>node2&#45;&gt;node4</title>
<path fill="none" stroke="black" d="M91.82,-105.53C97.1,-94.49 104.26,-79.52 110.81,-65.82"/>
<polygon fill="black" stroke="black" points="113.86,-67.57 115.01,-57.04 107.54,-64.55 113.86,-67.57"/>
</g>
<!-- node7 -->
<g id="node8" class="node">
<title>node7</title>
<ellipse fill="none" stroke="black" cx="283.95" cy="-122.97" rx="66.47" ry="28.99"/>
<text xml:space="preserve" text-anchor="middle" x="283.95" y="-126.17" font-family="Times New Roman,serif" font-size="14.00">11</text>
<text xml:space="preserve" text-anchor="middle" x="283.95" y="-109.67" font-family="Times New Roman,serif" font-size="14.00">bruhvumm ok</text>
</g>
<!-- node6&#45;&gt;node7 -->
<g id="edge6" class="edge">
<title>node6&#45;&gt;node7</title>
<path fill="none" stroke="black" d="M283.95,-187.79C283.95,-180.7 283.95,-172.17 283.95,-163.68"/>
<polygon fill="black" stroke="black" points="287.45,-163.79 283.95,-153.79 280.45,-163.79 287.45,-163.79"/>
</g>
<!-- node8 -->
<g id="node9" class="node">
<title>node8</title>
<ellipse fill="none" stroke="black" cx="432.95" cy="-122.97" rx="64.35" ry="28.99"/>
<text xml:space="preserve" text-anchor="middle" x="432.95" y="-126.17" font-family="Times New Roman,serif" font-size="14.00">13</text>
<text xml:space="preserve" text-anchor="middle" x="432.95" y="-109.67" font-family="Times New Roman,serif" font-size="14.00">are you doing</text>
</g>
<!-- node6&#45;&gt;node8 -->
<g id="edge7" class="edge">
<title>node6&#45;&gt;node8</title>
<path fill="none" stroke="black" d="M304.36,-193.87C324.43,-182.96 355.86,-165.88 382.63,-151.33"/>
<polygon fill="black" stroke="black" points="384.18,-154.47 391.3,-146.62 380.84,-148.32 384.18,-154.47"/>
</g>
</g>
</svg>
