<?xml version="1.0" encoding="UTF-8" standalone="no"?>
<!DOCTYPE svg PUBLIC "-//W3C//DTD SVG 1.1//EN"
 "http://www.w3.org/Graphics/SVG/1.1/DTD/svg11.dtd">
<!-- Generated by graphviz version 14.1.2 (20260124.0452)
 -->
<!-- Pages: 1 -->
<svg width="439pt" height="304pt"
 viewBox="0.00 0.00 439.00 304.00" xmlns="http://www.w3.org/2000/svg" xmlns:xlink="http://www.w3.org/1999/xlink">
<g id="graph0" class="graph" transform="scale(1 1) rotate(0) translate(4 299.97)">
<polygon fill="white" stroke="none" points="-4,4 -4,-299.97 435.3,-299.97 435.3,4 -4,4"/>
<!-- node0 -->
<g id="node1" class="node">
<title>node0</title>
<ellipse fill="none" stroke="black" cx="206.95" cy="-277.97" rx="27" ry="18"/>
<text xml:space="preserve" text-anchor="middle" x="206.95" y="-272.92" font-family="Times New Roman,serif" font-size="14.00">36</text>
</g>
<!-- node1 -->
<g id="node2" class="node">
<title>node1</title>
<ellipse fill="none" stroke="black" cx="163.95" cy="-205.97" rx="27" ry="18"/>
<text xml:space="preserve" text-anchor="middle" x="163.95" y="-200.92" font-family="Times New Roman,serif" font-size="14.00">18</text>
</g>
<!-- node0&#45;&gt;node1 -->
<g id="edge5" class="edge">
<title>node0&#45;&gt;node1</title>
<path fill="none" stroke="black" d="M196.98,-260.73C191.88,-252.43 185.55,-242.12 179.8,-232.76"/>
<polygon fill="black" stroke="black" points="182.88,-231.09 174.66,-224.4 176.91,-234.76 182.88,-231.09"/>
</g>
<!-- node6 -->
<g id="node7" class="node">
<title>node6</title>
<ellipse fill="none" stroke="black" cx="250.95" cy="-205.97" rx="27" ry="18"/>
<text xml:space="preserve" text-anchor="middle" x="250.95" y="-200.92" font-family="Times New Roman,serif" font-size="14.00">18</text>
</g>
<!-- node0&#45;&gt;node6 -->
<g id="edge8" class="edge">
<title>node0&#45;&gt;node6</title>
<path fill="none" stroke="black" d="M216.94,-261.08C222.28,-252.58 228.99,-241.91 235.03,-232.29"/>
<polygon fill="black" stroke="black" points="237.84,-234.4 240.2,-224.07 231.92,-230.67 237.84,-234.4"/>
</g>
<!-- node2 -->
<g id="node3" class="node">
<title>node2</title>
<ellipse fill="none" stroke="black" cx="83.95" cy="-122.97" rx="27" ry="18"/>
<text xml:space="preserve" text-anchor="middle" x="83.95" y="-117.92" font-family="Times New Roman,serif" font-size="14.00">11</text>
</g>
<!-- node1&#45;&gt;node2 -->
<g id="edge3" class="edge">
<title>node1&#45;&gt;node2</title>
<path fill="none" stroke="black" d="M149.65,-190.49C137.55,-178.24 120.02,-160.49 106.1,-146.4"/>
<polygon fill="black" stroke="black" points="108.98,-144.33 99.46,-139.68 104,-149.25 108.98,-144.33"/>
</g>
<!-- node5 -->
<g id="node6" class="node">
<title>node5</title>
<ellipse fill="none" stroke="black" cx="163.95" cy="-122.97" rx="35.18" ry="28.99"/>
<text xml:space="preserve" text-anchor="middle" x="163.95" y="-126.17" font-family="Times New Roman,serif" font-size="14.00">7</text>
<text xml:space="preserve" text-anchor="middle" x="163.95" y="-109.67" font-family="Times New Roman,serif" font-size="14.00">e hell </text>
</g>
<!-- node1&#45;&gt;node5 -->
<g id="edge4" class="edge">
<title>node1&#45;&gt;node5</title>
<path fill="none" stroke="black" d="M163.95,-187.79C163.95,-180.7 163.95,-172.17 163.95,-163.68"/>
<polygon fill="black" stroke="black" points="167.45,-163.79 163.95,-153.79 160.45,-163.79 167.45,-163.79"/>
</g>
<!-- node3 -->
<g id="node4" class="node">
<title>node3</title>
<ellipse fill="none" stroke="black" cx="39.95" cy="-28.99" rx="39.95" ry="28.99"/>
<text xml:space="preserve" text-anchor="middle" x="39.95" y="-32.19" font-family="Times New Roman,serif" font-size="14.00">7</text>
<text xml:space="preserve" text-anchor="middle" x="39.95" y="-15.69" font-family="Times New Roman,serif" font-size="14.00">what th</text>
</g>
<!-- node2&#45;&gt;node3 -->
<g id="edge1" class="edge">
<title>node2&#45;&gt;node3</title>
<path fill="none" stroke="black" d="M76.09,-105.53C70.92,-94.74 63.96,-80.19 57.53,-66.74"/>
<polygon fill="black" stroke="black" points="60.88,-65.63 53.4,-58.11 54.56,-68.65 60.88,-65.63"/>
</g>
<!-- node4 -->
<g id="node5" class="node">
<title>node4</title>
<ellipse fill="none" stroke="black" cx="127.95" cy="-28.99" rx="30.41" ry="28.99"/>
<text xml:space="preserve" text-anchor="middle" x="127.95" y="-32.19" font-family="Times New Roman,serif" font-size="14.00">4</text>
<text xml:space="preserve" text-anchor="middle" x="127.95" y="-15.69" font-family="Times New Roman,serif" font-size="14.00">1234</text>
</g>
<!-- node2&#45;&gt;node4 -->
<g id="edge2" class="edge">
<title>node2&#45;&gt;node4</title>
<path fill="none" stroke="black" d="M91.82,-105.53C97.1,-94.49 104.26,-79.52 110.81,-65.82"/>
<polygon fill="black" stroke="black" points="113.86,-67.57 115.01,-57.04 107.54,-64.55 113.86,-67.57"/>
</g>
<!-- node7 -->
<g id="node8" class="node">
<title>node7</title>
<ellipse fill="none" stroke="black" cx="250.95" cy="-122.97" rx="33.59" ry="28.99"/>
<text xml:space="preserve" text-anchor="middle" x="250.95" y="-126.17" font-family="Times New Roman,serif" font-size="14.00">5</text>
<text xml:space="preserve" text-anchor="middle" x="250.95" y="-109.67" font-family="Times New Roman,serif" font-size="14.00">bruhv</text>
</g>
<!-- node6&#45;&gt;node7 -->
<g id="edge6" class="edge">
<title>node6&#45;&gt;node7</title>
<path fill="none" stroke="black" d="M250.95,-187.79C250.95,-180.7 250.95,-172.17 250.95,-163.68"/>
<polygon fill="black" stroke="black" points="254.45,-163.79 250.95,-153.79 247.45,-163.79 254.45,-163.79"/>
</g>
<!-- node8 -->
<g id="node9" class="node">
<title>node8</title>
<ellipse fill="none" stroke="black" cx="366.95" cy="-122.97" rx="64.35" ry="28.99"/>
<text xml:space="preserve" text-anchor="middle" x="366.95" y="-126.17" font-family="Times New Roman,serif" font-size="14.00">13</text>
<text xml:space="preserve" text-anchor="middle" x="366.95" y="-109.67" font-family="Times New Roman,serif" font-size="14.00">are you doing</text>
</g>
<!-- node6&#45;&gt;node8 -->
<g id="edge7" class="edge">
<title>node6&#45;&gt;node8</title>
<path fill="none" stroke="black" d="M269.08,-192.31C283.58,-182.19 304.52,-167.56 323.32,-154.44"/>
<polygon fill="black" stroke="black" points="325.18,-157.41 331.38,-148.81 321.17,-151.67 325.18,-157.41"/>
</g>
</g>
</svg>
